# xmcd
#
# Track frame offsets:
#	150
#	11468
#	25297
#	41979
#	55220
#	56261
#	66778
#	79902
#	95715
#	104021
#	122620
#	136111
#	147174
#	159914
#
# Disc length: 2263 seconds
#
# Revision: 0
# Processed by: cddbd v1.5.2PL0 Copyright (c) Steve Scherf et al.
# Submitted via: audiograbber 1.83.01
#
DISCID=bb08d50e
DTITLE=Various Artist - Lebe gode Wiehnachtsmann
DYEAR=1979
DGENRE=Folk
TTITLE0=Finkwarder Speeldeel - Lebe gode Wiehnachtsmann
TTITLE1=Finkwarder Speeldeel - Eenmol in't Joahr
TTITLE2=Der Passat Chor - Wiehnachtsabend
TTITLE3=Der Passat Chor - Je Kinner, nu kummt all
TTITLE4=Finkwarder Speeldeel - Wiehnachtsmann kiek mi an
TTITLE5=Finkwarder Speeldeel - Wiehnacht wat büst du
TTITLE6=Fiede Kay - Winter
TTITLE7=Finkwarder Speeldeel - Sankt Niklas wüer een Seemann
TTITLE8=Der Passat Chor - O Dannenboom
TTITLE9=Fiede Kay - Weihnachtslied
TTITLE10=Der Passat Chor - Dor kemm en Ros
TTITLE11=Fiede Kay - Sünnerklas
TTITLE12=Freddy Quinn - Weihnacht im Hafen
TTITLE13=Sigrun Kiesewetter - Wat klingen de Glocken
EXTD=
EXTT0=
EXTT1=
EXTT2=
EXTT3=
EXTT4=
EXTT5=
EXTT6=
EXTT7=
EXTT8=
EXTT9=
EXTT10=
EXTT11=
EXTT12=
EXTT13=
PLAYORDER=
